<svg xmlns="http://www.w3.org/2000/svg" viewBox="0 0 326.67 56.41"><defs><style>.cls-1{fill:#ecae7d;}.cls-2{fill:#fff;}</style></defs><g id="Layer_2" data-name="Layer 2"><g id="Layer_1-2" data-name="Layer 1"><path class="cls-1" d="M62.68.63v13A18.79,18.79,0,0,0,42.4,18.81H62.68V31.34H37.61V56.41H25.07V31.34H0V18.81H20.28a18.82,18.82,0,0,0-14-6.27A18.6,18.6,0,0,0,0,13.62V.63a31.52,31.52,0,0,1,12.54,0A31.12,31.12,0,0,1,25.07,6.27a31,31,0,0,1,6.27,6.27A31.38,31.38,0,0,1,50.14.63a31.52,31.52,0,0,1,12.54,0Z"/><path class="cls-2" d="M92,47.88V16H79.12v-8h34.7v8H100.94v31.9Z"/><path class="cls-2" d="M110.42,32.91c0-9.53,5.73-15.61,15.38-15.61S141,23.38,141,32.91,135.4,48.47,125.8,48.47,110.42,42.39,110.42,32.91Zm21.88,0c0-5.84-1.67-7.75-6.5-7.75s-6.55,1.91-6.55,7.75,1.67,7.7,6.55,7.7S132.3,38.7,132.3,32.91Z"/><path class="cls-2" d="M142.68,37.68v-.17h8.52v1.25c0,2.2,1.31,2.68,5.67,2.68,3.63,0,4.23-.54,4.23-2s-.83-2-4.83-2.68l-4.53-.83c-5.9-1.08-9.12-3.58-9.12-9.13s4.53-9.47,13.06-9.47c7.33,0,12.93,3.45,12.93,10.19v.83h-8.52v-.83c0-2-.84-3-4.65-3-3.58,0-4.41.77-4.41,2.2s.53,1.85,4.11,2.57l5.48,1.13c6.32,1.19,8.95,4.06,8.95,8.94,0,5.61-4.59,9.18-12.88,9.18C147.27,48.47,142.68,45,142.68,37.68Z"/><path class="cls-2" d="M171.53,47.88V7.94h8.89v14.6h.36a10.79,10.79,0,0,1,9.65-5.24c7.75,0,11,5.18,11,11.56v19h-8.94V30.65c0-4.17-1.37-5.66-5.9-5.66-4.29,0-6.14,1.43-6.14,6V47.88Z"/><path class="cls-2" d="M203.49,32.91c0-9.53,5.73-15.61,15.38-15.61s15.21,6.08,15.21,15.61-5.61,15.56-15.21,15.56S203.49,42.39,203.49,32.91Zm21.88,0c0-5.84-1.67-7.75-6.5-7.75s-6.55,1.91-6.55,7.75,1.67,7.7,6.55,7.7S225.37,38.7,225.37,32.91Z"/><path class="cls-2" d="M236.28,47.88V7.94h8.89V29h4.41l6.8-11.09h10.25L256.85,32.2l9.72,15.68H256.32L249.76,37h-4.59V47.88Z"/><path class="cls-2" d="M265.14,40.25c0-4.65,3.34-7.51,9.54-8.47l10.26-1.55v0a5.08,5.08,0,0,0-4.89-5.09c-4-.1-5.61.86-5.61,4.05v.65h-8.52v-.65c0-7.16,5.54-11.86,14-11.86,8.82,0,13.47,4.82,13.47,12.81V47.88h-8.29V43.82h-.35c-1.61,2.21-4.65,4.65-10.2,4.65C269.25,48.47,265.14,45.67,265.14,40.25Zm12.4,1.43c3.64,0,7.4-1,7.4-5.61l-8.59,1.32c-1.85.29-2.68.89-2.68,2.14C273.67,41.14,274.92,41.68,277.54,41.68Z"/><path class="cls-2" d="M296.8,47.88v-30h8.29v5.25h.36c1.61-3.4,4.82-5.84,10.07-5.84,7.81,0,11.15,5.18,11.15,11.56v19h-8.94V30.65c0-4.17-1.37-5.66-5.91-5.66-4.29,0-6.14,1.37-6.14,5.9v17Z"/></g></g></svg>